<svg width="389" height="81" viewBox="0 0 389 81" fill="none" xmlns="http://www.w3.org/2000/svg">
<rect x="1" width="390" height="80" fill="#F8F8F8"/>
<rect y="40" width="390" height="41" fill="#F8F8F8"/>
<path fill-rule="evenodd" clip-rule="evenodd" d="M48.5 14.2805L57.6971 22.5737L57.6976 27.4876C57.6976 29.3833 56.2199 30.9283 54.3713 30.9976L54.2417 31H51.9358C51.3286 31 50.831 30.5224 50.787 29.9166L50.7839 29.8292V27.1196C50.7839 25.87 49.8156 24.8498 48.5987 24.7891L48.4839 24.7863C47.2483 24.7863 46.2426 25.7686 46.1828 27.0031L46.18 27.1196V29.8292C46.18 30.4464 45.71 30.9521 45.114 30.9968L45.028 31H42.7221C40.8569 31 39.3367 29.4981 39.2686 27.6192L39.2661 27.4876V22.607L48.5 14.2805ZM47.7216 10.2912C48.1309 9.92577 48.7315 9.90427 49.1633 10.2267L49.2422 10.2912L59.6099 19.6577C60.0864 20.0848 60.1328 20.8234 59.7135 21.3086C59.3564 21.7203 58.7777 21.8161 58.319 21.5739L49.264 13.4085L49.1849 13.3432C48.7789 13.0373 48.2211 13.0373 47.8151 13.3432L47.736 13.4085L38.7863 21.4796C38.3118 21.7984 37.6702 21.718 37.2872 21.2756C36.9012 20.8298 36.9073 20.1663 37.2872 19.7285L37.354 19.6577L47.7216 10.2912Z" fill="#3E69FE"/>
<path fill-rule="evenodd" clip-rule="evenodd" d="M156.1 11C156.735 11 157.25 11.4975 157.25 12.1111H159.55C161.455 12.1111 163 13.6035 163 15.4444V27.6667C163 29.5076 161.455 31 159.55 31H143.45C141.545 31 140 29.5076 140 27.6667V15.4444C140 13.6035 141.545 12.1111 143.45 12.1111H145.75C145.75 11.4975 146.265 11 146.9 11C147.535 11 148.05 11.4975 148.05 12.1111H154.95C154.95 11.4975 155.465 11 156.1 11ZM145.75 14.3333H143.45C142.815 14.3333 142.3 14.8308 142.3 15.4444V27.1111C142.3 28.0316 143.072 28.7778 144.025 28.7778H158.975C159.928 28.7778 160.7 28.0316 160.7 27.1111V15.4444C160.7 14.8308 160.185 14.3333 159.55 14.3333H157.25C157.25 14.947 156.735 15.4444 156.1 15.4444C155.465 15.4444 154.95 14.947 154.95 14.3333H148.05C148.05 14.947 147.535 15.4444 146.9 15.4444C146.265 15.4444 145.75 14.947 145.75 14.3333ZM148.28 25.4444C148.788 25.4444 149.2 25.8424 149.2 26.3333V26.7778C149.2 27.2687 148.788 27.6667 148.28 27.6667H147.82C147.312 27.6667 146.9 27.2687 146.9 26.7778V26.3333C146.9 25.8424 147.312 25.4444 147.82 25.4444H148.28ZM144.83 25.4444C145.338 25.4444 145.75 25.8424 145.75 26.3333V26.7778C145.75 27.2687 145.338 27.6667 144.83 27.6667H144.37C143.862 27.6667 143.45 27.2687 143.45 26.7778V26.3333C143.45 25.8424 143.862 25.4444 144.37 25.4444H144.83ZM151.73 25.4444C152.238 25.4444 152.65 25.8424 152.65 26.3333V26.7778C152.65 27.2687 152.238 27.6667 151.73 27.6667H151.27C150.762 27.6667 150.35 27.2687 150.35 26.7778V26.3333C150.35 25.8424 150.762 25.4444 151.27 25.4444H151.73ZM155.18 25.4444C155.688 25.4444 156.1 25.8424 156.1 26.3333V26.7778C156.1 27.2687 155.688 27.6667 155.18 27.6667H154.72C154.212 27.6667 153.8 27.2687 153.8 26.7778V26.3333C153.8 25.8424 154.212 25.4444 154.72 25.4444H155.18ZM148.28 21.5556C148.788 21.5556 149.2 21.9535 149.2 22.4444V22.8889C149.2 23.3798 148.788 23.7778 148.28 23.7778H147.82C147.312 23.7778 146.9 23.3798 146.9 22.8889V22.4444C146.9 21.9535 147.312 21.5556 147.82 21.5556H148.28ZM144.83 21.5556C145.338 21.5556 145.75 21.9535 145.75 22.4444V22.8889C145.75 23.3798 145.338 23.7778 144.83 23.7778H144.37C143.862 23.7778 143.45 23.3798 143.45 22.8889V22.4444C143.45 21.9535 143.862 21.5556 144.37 21.5556H144.83ZM151.73 21.5556C152.238 21.5556 152.65 21.9535 152.65 22.4444V22.8889C152.65 23.3798 152.238 23.7778 151.73 23.7778H151.27C150.762 23.7778 150.35 23.3798 150.35 22.8889V22.4444C150.35 21.9535 150.762 21.5556 151.27 21.5556H151.73ZM155.18 21.5556C155.688 21.5556 156.1 21.9535 156.1 22.4444V22.8889C156.1 23.3798 155.688 23.7778 155.18 23.7778H154.72C154.212 23.7778 153.8 23.3798 153.8 22.8889V22.4444C153.8 21.9535 154.212 21.5556 154.72 21.5556H155.18ZM158.63 21.5556C159.138 21.5556 159.55 21.9535 159.55 22.4444V22.8889C159.55 23.3798 159.138 23.7778 158.63 23.7778H158.17C157.662 23.7778 157.25 23.3798 157.25 22.8889V22.4444C157.25 21.9535 157.662 21.5556 158.17 21.5556H158.63ZM148.28 17.6667C148.788 17.6667 149.2 18.0646 149.2 18.5556V19C149.2 19.4909 148.788 19.8889 148.28 19.8889H147.82C147.312 19.8889 146.9 19.4909 146.9 19V18.5556C146.9 18.0646 147.312 17.6667 147.82 17.6667H148.28ZM151.73 17.6667C152.238 17.6667 152.65 18.0646 152.65 18.5556V19C152.65 19.4909 152.238 19.8889 151.73 19.8889H151.27C150.762 19.8889 150.35 19.4909 150.35 19V18.5556C150.35 18.0646 150.762 17.6667 151.27 17.6667H151.73ZM155.18 17.6667C155.688 17.6667 156.1 18.0646 156.1 18.5556V19C156.1 19.4909 155.688 19.8889 155.18 19.8889H154.72C154.212 19.8889 153.8 19.4909 153.8 19V18.5556C153.8 18.0646 154.212 17.6667 154.72 17.6667H155.18ZM158.63 17.6667C159.138 17.6667 159.55 18.0646 159.55 18.5556V19C159.55 19.4909 159.138 19.8889 158.63 19.8889H158.17C157.662 19.8889 157.25 19.4909 157.25 19V18.5556C157.25 18.0646 157.662 17.6667 158.17 17.6667H158.63Z" fill="#333333"/>
<path fill-rule="evenodd" clip-rule="evenodd" d="M263.103 9.00316C261.413 8.94955 259.767 9.57939 258.503 10.7633C257.24 9.57939 255.594 8.94955 253.904 9.00316C251.903 8.99596 250.004 9.93279 248.729 11.5563C247.633 12.9557 246.486 15.4894 247.246 19.6199C248.46 26.2127 257.556 31.624 257.94 31.8467C258.288 32.0511 258.712 32.0511 259.06 31.8467C259.447 31.6204 268.543 26.2091 269.754 19.6199C270.514 15.4894 269.368 12.9617 268.272 11.5563C266.998 9.93415 265.102 8.99743 263.103 9.00316ZM267.28 19.2036C266.445 23.7437 260.377 27.9675 258.507 29.1736C256.637 27.9675 250.569 23.7448 249.734 19.2036C249.159 16.0808 249.945 14.2669 250.708 13.2944C251.525 12.2567 252.74 11.6583 254.02 11.6635C255.393 11.5551 256.719 12.2133 257.512 13.3971C257.707 13.7758 258.082 14.0127 258.491 14.0155H258.505C258.911 14.0126 259.285 13.7812 259.484 13.4089C260.277 12.2157 261.61 11.552 262.989 11.6635C264.271 11.6569 265.488 12.2554 266.306 13.2944C267.066 14.2669 267.853 16.0808 267.278 19.2036H267.28Z" fill="#333333"/>
<path fill-rule="evenodd" clip-rule="evenodd" d="M349.5 20.5C357.834 20.5 361.857 24.4354 360.847 31.7959C360.753 32.4853 360.151 33 359.44 33H339.56C338.849 33 338.247 32.4853 338.153 31.7959C337.143 24.4354 341.166 20.5 349.5 20.5ZM349.5 23.2778C343.302 23.2778 340.61 25.4579 340.852 30.2222H358.148C358.39 25.4579 355.698 23.2778 349.5 23.2778ZM349.5 8C352.637 8 355.18 10.4873 355.18 13.5556C355.18 16.6238 352.637 19.1111 349.5 19.1111C346.363 19.1111 343.82 16.6238 343.82 13.5556C343.82 10.4873 346.363 8 349.5 8ZM349.5 10.7778C347.932 10.7778 346.66 12.0214 346.66 13.5556C346.66 15.0897 347.932 16.3333 349.5 16.3333C351.068 16.3333 352.34 15.0897 352.34 13.5556C352.34 12.0214 351.068 10.7778 349.5 10.7778Z" fill="#333333"/>
<rect x="129" y="67" width="134" height="5" rx="2.5" fill="#191052"/>
</svg>
